# xmcd
#
# Track frame offsets:
#	150
#	13381
#	25418
#	37748
#	50368
#	64113
#	79254
#	92342
#	105354
#	119009
#	131854
#	145503
#	159899
#	172953
#	186699
#	200331
#
# Disc length: 2861 seconds
#
# Revision: 1
# Processed by: cddbd v1.5.2PL0 Copyright (c) Steve Scherf et al.
# Submitted via: audiograbber 1.83.01
#
DISCID=d30b2b10
DTITLE=Dinah Washington - I was Born Ruth Lee Jones, But I'm Singing as Dinahh
DYEAR=2008
DGENRE=Blues
TTITLE0=Embraceable You
TTITLE1=Since I Fell for You
TTITLE2=You Can Depend on Me
TTITLE3=Why Can't You Behave?
TTITLE4=Salty Papa Blues
TTITLE5=Blow Top Blues
TTITLE6=Evil Gal Blues
TTITLE7=When a Woman Loves a Man
TTITLE8=How Deep is the Ocean
TTITLE9=Baby Get Lost
TTITLE10=Lover Man
TTITLE11=It's a Mean Old Man's World
TTITLE12=I Wanna Be Loved
TTITLE13=Harbor Lights
TTITLE14=Please Send Me Someone to Love
TTITLE15=Ain't Nobody's Business But My Own
EXTD=
EXTT0=
EXTT1=
EXTT2=
EXTT3=
EXTT4=
EXTT5=
EXTT6=
EXTT7=
EXTT8=
EXTT9=
EXTT10=
EXTT11=
EXTT12=
EXTT13=
EXTT14=
EXTT15=
PLAYORDER=
